<mxfile host="app.diagrams.net" modified="2023-04-28T17:01:22.362Z" agent="Mozilla/5.0 (Windows NT 10.0; Win64; x64) AppleWebKit/537.36 (KHTML, like Gecko) Chrome/112.0.0.0 Safari/537.36" etag="AOhiGsNFWG96aYG_oyuG" version="21.2.3" type="device">
  <diagram name="Страница 1" id="ZvJ_Mst7eT50meedDWvo">
    <mxGraphModel dx="1595" dy="865" grid="1" gridSize="10" guides="1" tooltips="1" connect="1" arrows="1" fold="1" page="1" pageScale="1" pageWidth="827" pageHeight="1169" math="0" shadow="0">
      <root>
        <mxCell id="0" />
        <mxCell id="1" parent="0" />
        <mxCell id="Tjgq2BbfRWW635q0u-Vn-1" value="Admin" style="swimlane;fontStyle=1;align=center;verticalAlign=top;childLayout=stackLayout;horizontal=1;startSize=26;horizontalStack=0;resizeParent=1;resizeParentMax=0;resizeLast=0;collapsible=1;marginBottom=0;" parent="1" vertex="1">
          <mxGeometry x="90" y="110" width="160" height="180" as="geometry" />
        </mxCell>
        <mxCell id="Tjgq2BbfRWW635q0u-Vn-2" value="TrainingList&#xa;RecipesList" style="text;strokeColor=none;fillColor=none;align=left;verticalAlign=top;spacingLeft=4;spacingRight=4;overflow=hidden;rotatable=0;points=[[0,0.5],[1,0.5]];portConstraint=eastwest;" parent="Tjgq2BbfRWW635q0u-Vn-1" vertex="1">
          <mxGeometry y="26" width="160" height="44" as="geometry" />
        </mxCell>
        <mxCell id="Tjgq2BbfRWW635q0u-Vn-3" value="" style="line;strokeWidth=1;fillColor=none;align=left;verticalAlign=middle;spacingTop=-1;spacingLeft=3;spacingRight=3;rotatable=0;labelPosition=right;points=[];portConstraint=eastwest;strokeColor=inherit;" parent="Tjgq2BbfRWW635q0u-Vn-1" vertex="1">
          <mxGeometry y="70" width="160" height="8" as="geometry" />
        </mxCell>
        <mxCell id="Tjgq2BbfRWW635q0u-Vn-4" value="+ AddTraining()&#xa;+ DeleteTraining()&#xa;+EditTraining()&#xa;+ AddRecipe()&#xa;+ DeleteRecipet()&#xa;+EditRecipe()" style="text;strokeColor=none;fillColor=none;align=left;verticalAlign=top;spacingLeft=4;spacingRight=4;overflow=hidden;rotatable=0;points=[[0,0.5],[1,0.5]];portConstraint=eastwest;" parent="Tjgq2BbfRWW635q0u-Vn-1" vertex="1">
          <mxGeometry y="78" width="160" height="102" as="geometry" />
        </mxCell>
        <mxCell id="Tjgq2BbfRWW635q0u-Vn-5" value="Training" style="swimlane;fontStyle=1;align=center;verticalAlign=top;childLayout=stackLayout;horizontal=1;startSize=26;horizontalStack=0;resizeParent=1;resizeParentMax=0;resizeLast=0;collapsible=1;marginBottom=0;" parent="1" vertex="1">
          <mxGeometry x="90" y="320" width="160" height="120" as="geometry" />
        </mxCell>
        <mxCell id="Tjgq2BbfRWW635q0u-Vn-6" value="+ Name&#xa;+ Discription" style="text;strokeColor=none;fillColor=none;align=left;verticalAlign=top;spacingLeft=4;spacingRight=4;overflow=hidden;rotatable=0;points=[[0,0.5],[1,0.5]];portConstraint=eastwest;" parent="Tjgq2BbfRWW635q0u-Vn-5" vertex="1">
          <mxGeometry y="26" width="160" height="44" as="geometry" />
        </mxCell>
        <mxCell id="Tjgq2BbfRWW635q0u-Vn-7" value="" style="line;strokeWidth=1;fillColor=none;align=left;verticalAlign=middle;spacingTop=-1;spacingLeft=3;spacingRight=3;rotatable=0;labelPosition=right;points=[];portConstraint=eastwest;strokeColor=inherit;" parent="Tjgq2BbfRWW635q0u-Vn-5" vertex="1">
          <mxGeometry y="70" width="160" height="8" as="geometry" />
        </mxCell>
        <mxCell id="Tjgq2BbfRWW635q0u-Vn-8" value="+ Name.Show()&#xa;+Discription.Show()" style="text;strokeColor=none;fillColor=none;align=left;verticalAlign=top;spacingLeft=4;spacingRight=4;overflow=hidden;rotatable=0;points=[[0,0.5],[1,0.5]];portConstraint=eastwest;" parent="Tjgq2BbfRWW635q0u-Vn-5" vertex="1">
          <mxGeometry y="78" width="160" height="42" as="geometry" />
        </mxCell>
        <mxCell id="Tjgq2BbfRWW635q0u-Vn-13" value="TrainingList" style="swimlane;fontStyle=1;align=center;verticalAlign=top;childLayout=stackLayout;horizontal=1;startSize=26;horizontalStack=0;resizeParent=1;resizeParentMax=0;resizeLast=0;collapsible=1;marginBottom=0;" parent="1" vertex="1">
          <mxGeometry x="580" y="210" width="160" height="148" as="geometry" />
        </mxCell>
        <mxCell id="Tjgq2BbfRWW635q0u-Vn-14" value="+Trainings[]&#xa;+ Admin" style="text;strokeColor=none;fillColor=none;align=left;verticalAlign=top;spacingLeft=4;spacingRight=4;overflow=hidden;rotatable=0;points=[[0,0.5],[1,0.5]];portConstraint=eastwest;" parent="Tjgq2BbfRWW635q0u-Vn-13" vertex="1">
          <mxGeometry y="26" width="160" height="46" as="geometry" />
        </mxCell>
        <mxCell id="Tjgq2BbfRWW635q0u-Vn-15" value="" style="line;strokeWidth=1;fillColor=none;align=left;verticalAlign=middle;spacingTop=-1;spacingLeft=3;spacingRight=3;rotatable=0;labelPosition=right;points=[];portConstraint=eastwest;strokeColor=inherit;" parent="Tjgq2BbfRWW635q0u-Vn-13" vertex="1">
          <mxGeometry y="72" width="160" height="20" as="geometry" />
        </mxCell>
        <mxCell id="Tjgq2BbfRWW635q0u-Vn-16" value="+ Show()&#xa;" style="text;strokeColor=none;fillColor=none;align=left;verticalAlign=top;spacingLeft=4;spacingRight=4;overflow=hidden;rotatable=0;points=[[0,0.5],[1,0.5]];portConstraint=eastwest;" parent="Tjgq2BbfRWW635q0u-Vn-13" vertex="1">
          <mxGeometry y="92" width="160" height="56" as="geometry" />
        </mxCell>
        <mxCell id="Tjgq2BbfRWW635q0u-Vn-22" value="name" style="endArrow=block;endFill=1;html=1;edgeStyle=orthogonalEdgeStyle;align=left;verticalAlign=top;rounded=0;" parent="1" target="Tjgq2BbfRWW635q0u-Vn-16" edge="1">
          <mxGeometry x="-1" relative="1" as="geometry">
            <mxPoint x="250" y="362.55" as="sourcePoint" />
            <mxPoint x="820" y="220" as="targetPoint" />
            <Array as="points">
              <mxPoint x="250" y="368" />
              <mxPoint x="510" y="368" />
              <mxPoint x="510" y="328" />
            </Array>
          </mxGeometry>
        </mxCell>
        <mxCell id="Tjgq2BbfRWW635q0u-Vn-23" value="1" style="edgeLabel;resizable=0;html=1;align=left;verticalAlign=bottom;" parent="Tjgq2BbfRWW635q0u-Vn-22" connectable="0" vertex="1">
          <mxGeometry x="-1" relative="1" as="geometry" />
        </mxCell>
        <mxCell id="Tjgq2BbfRWW635q0u-Vn-24" value="name" style="endArrow=block;endFill=1;html=1;edgeStyle=orthogonalEdgeStyle;align=left;verticalAlign=top;rounded=0;exitX=1;exitY=0.5;exitDx=0;exitDy=0;" parent="1" source="Tjgq2BbfRWW635q0u-Vn-2" target="Tjgq2BbfRWW635q0u-Vn-13" edge="1">
          <mxGeometry x="-1" relative="1" as="geometry">
            <mxPoint x="560" y="280" as="sourcePoint" />
            <mxPoint x="820" y="150" as="targetPoint" />
            <Array as="points">
              <mxPoint x="250" y="149" />
              <mxPoint x="660" y="149" />
            </Array>
          </mxGeometry>
        </mxCell>
        <mxCell id="Tjgq2BbfRWW635q0u-Vn-25" value="1" style="edgeLabel;resizable=0;html=1;align=left;verticalAlign=bottom;" parent="Tjgq2BbfRWW635q0u-Vn-24" connectable="0" vertex="1">
          <mxGeometry x="-1" relative="1" as="geometry" />
        </mxCell>
        <mxCell id="Tjgq2BbfRWW635q0u-Vn-28" value="MainWindow" style="swimlane;fontStyle=1;align=center;verticalAlign=top;childLayout=stackLayout;horizontal=1;startSize=26;horizontalStack=0;resizeParent=1;resizeParentMax=0;resizeLast=0;collapsible=1;marginBottom=0;" parent="1" vertex="1">
          <mxGeometry x="1050" y="330" width="160" height="78" as="geometry" />
        </mxCell>
        <mxCell id="Tjgq2BbfRWW635q0u-Vn-29" value="+ TrainingList&#xa;+ RecipesList" style="text;strokeColor=none;fillColor=none;align=left;verticalAlign=top;spacingLeft=4;spacingRight=4;overflow=hidden;rotatable=0;points=[[0,0.5],[1,0.5]];portConstraint=eastwest;" parent="Tjgq2BbfRWW635q0u-Vn-28" vertex="1">
          <mxGeometry y="26" width="160" height="44" as="geometry" />
        </mxCell>
        <mxCell id="Tjgq2BbfRWW635q0u-Vn-30" value="" style="line;strokeWidth=1;fillColor=none;align=left;verticalAlign=middle;spacingTop=-1;spacingLeft=3;spacingRight=3;rotatable=0;labelPosition=right;points=[];portConstraint=eastwest;strokeColor=inherit;" parent="Tjgq2BbfRWW635q0u-Vn-28" vertex="1">
          <mxGeometry y="70" width="160" height="8" as="geometry" />
        </mxCell>
        <mxCell id="Tjgq2BbfRWW635q0u-Vn-33" value="1" style="endArrow=open;html=1;endSize=12;startArrow=diamondThin;startSize=14;startFill=1;edgeStyle=orthogonalEdgeStyle;align=left;verticalAlign=bottom;rounded=0;exitX=1;exitY=0.5;exitDx=0;exitDy=0;" parent="1" source="Tjgq2BbfRWW635q0u-Vn-16" edge="1">
          <mxGeometry x="-1" y="3" relative="1" as="geometry">
            <mxPoint x="760" y="330" as="sourcePoint" />
            <mxPoint x="1051" y="360" as="targetPoint" />
            <Array as="points">
              <mxPoint x="938" y="328" />
              <mxPoint x="938" y="360" />
              <mxPoint x="1051" y="360" />
            </Array>
            <mxPoint as="offset" />
          </mxGeometry>
        </mxCell>
        <mxCell id="IFpgJbpynFuCeoux7K9I-1" value="Recipe" style="swimlane;fontStyle=1;align=center;verticalAlign=top;childLayout=stackLayout;horizontal=1;startSize=26;horizontalStack=0;resizeParent=1;resizeParentMax=0;resizeLast=0;collapsible=1;marginBottom=0;" vertex="1" parent="1">
          <mxGeometry x="90" y="465" width="160" height="120" as="geometry" />
        </mxCell>
        <mxCell id="IFpgJbpynFuCeoux7K9I-2" value="+ Name&#xa;+ Discription" style="text;strokeColor=none;fillColor=none;align=left;verticalAlign=top;spacingLeft=4;spacingRight=4;overflow=hidden;rotatable=0;points=[[0,0.5],[1,0.5]];portConstraint=eastwest;" vertex="1" parent="IFpgJbpynFuCeoux7K9I-1">
          <mxGeometry y="26" width="160" height="44" as="geometry" />
        </mxCell>
        <mxCell id="IFpgJbpynFuCeoux7K9I-3" value="" style="line;strokeWidth=1;fillColor=none;align=left;verticalAlign=middle;spacingTop=-1;spacingLeft=3;spacingRight=3;rotatable=0;labelPosition=right;points=[];portConstraint=eastwest;strokeColor=inherit;" vertex="1" parent="IFpgJbpynFuCeoux7K9I-1">
          <mxGeometry y="70" width="160" height="8" as="geometry" />
        </mxCell>
        <mxCell id="IFpgJbpynFuCeoux7K9I-4" value="+ Name.Show()&#xa;+Discription.Show()" style="text;strokeColor=none;fillColor=none;align=left;verticalAlign=top;spacingLeft=4;spacingRight=4;overflow=hidden;rotatable=0;points=[[0,0.5],[1,0.5]];portConstraint=eastwest;" vertex="1" parent="IFpgJbpynFuCeoux7K9I-1">
          <mxGeometry y="78" width="160" height="42" as="geometry" />
        </mxCell>
        <mxCell id="IFpgJbpynFuCeoux7K9I-5" value="1" style="edgeLabel;resizable=0;html=1;align=left;verticalAlign=bottom;" connectable="0" vertex="1" parent="1">
          <mxGeometry x="250" y="507.54999999999995" as="geometry" />
        </mxCell>
        <mxCell id="IFpgJbpynFuCeoux7K9I-6" value="RecipesList" style="swimlane;fontStyle=1;align=center;verticalAlign=top;childLayout=stackLayout;horizontal=1;startSize=26;horizontalStack=0;resizeParent=1;resizeParentMax=0;resizeLast=0;collapsible=1;marginBottom=0;" vertex="1" parent="1">
          <mxGeometry x="580" y="400" width="160" height="146" as="geometry" />
        </mxCell>
        <mxCell id="IFpgJbpynFuCeoux7K9I-7" value="+Recipes[]&#xa;+ Admin" style="text;strokeColor=none;fillColor=none;align=left;verticalAlign=top;spacingLeft=4;spacingRight=4;overflow=hidden;rotatable=0;points=[[0,0.5],[1,0.5]];portConstraint=eastwest;" vertex="1" parent="IFpgJbpynFuCeoux7K9I-6">
          <mxGeometry y="26" width="160" height="44" as="geometry" />
        </mxCell>
        <mxCell id="IFpgJbpynFuCeoux7K9I-8" value="" style="line;strokeWidth=1;fillColor=none;align=left;verticalAlign=middle;spacingTop=-1;spacingLeft=3;spacingRight=3;rotatable=0;labelPosition=right;points=[];portConstraint=eastwest;strokeColor=inherit;" vertex="1" parent="IFpgJbpynFuCeoux7K9I-6">
          <mxGeometry y="70" width="160" height="20" as="geometry" />
        </mxCell>
        <mxCell id="IFpgJbpynFuCeoux7K9I-9" value="+ Show()&#xa;" style="text;strokeColor=none;fillColor=none;align=left;verticalAlign=top;spacingLeft=4;spacingRight=4;overflow=hidden;rotatable=0;points=[[0,0.5],[1,0.5]];portConstraint=eastwest;" vertex="1" parent="IFpgJbpynFuCeoux7K9I-6">
          <mxGeometry y="90" width="160" height="56" as="geometry" />
        </mxCell>
        <mxCell id="IFpgJbpynFuCeoux7K9I-10" value="name" style="endArrow=block;endFill=1;html=1;edgeStyle=orthogonalEdgeStyle;align=left;verticalAlign=top;rounded=0;" edge="1" parent="1">
          <mxGeometry x="-1" relative="1" as="geometry">
            <mxPoint x="249" y="522.1" as="sourcePoint" />
            <mxPoint x="579" y="487.55" as="targetPoint" />
            <Array as="points">
              <mxPoint x="249" y="527.55" />
              <mxPoint x="509" y="527.55" />
              <mxPoint x="509" y="487.55" />
            </Array>
          </mxGeometry>
        </mxCell>
        <mxCell id="IFpgJbpynFuCeoux7K9I-11" value="1" style="edgeLabel;resizable=0;html=1;align=left;verticalAlign=bottom;" connectable="0" vertex="1" parent="IFpgJbpynFuCeoux7K9I-10">
          <mxGeometry x="-1" relative="1" as="geometry" />
        </mxCell>
        <mxCell id="IFpgJbpynFuCeoux7K9I-12" value="1" style="endArrow=open;html=1;endSize=12;startArrow=diamondThin;startSize=14;startFill=1;edgeStyle=orthogonalEdgeStyle;align=left;verticalAlign=bottom;rounded=0;exitX=0.992;exitY=1;exitDx=0;exitDy=0;exitPerimeter=0;" edge="1" parent="1" source="IFpgJbpynFuCeoux7K9I-7" target="Tjgq2BbfRWW635q0u-Vn-29">
          <mxGeometry x="-1" y="3" relative="1" as="geometry">
            <mxPoint x="750" y="338" as="sourcePoint" />
            <mxPoint x="1061" y="390" as="targetPoint" />
            <Array as="points">
              <mxPoint x="948" y="470" />
              <mxPoint x="948" y="380" />
              <mxPoint x="1046" y="380" />
              <mxPoint x="1046" y="378" />
            </Array>
            <mxPoint as="offset" />
          </mxGeometry>
        </mxCell>
        <mxCell id="IFpgJbpynFuCeoux7K9I-13" style="edgeStyle=orthogonalEdgeStyle;rounded=0;orthogonalLoop=1;jettySize=auto;html=1;entryX=-0.004;entryY=0.116;entryDx=0;entryDy=0;entryPerimeter=0;" edge="1" parent="1" source="Tjgq2BbfRWW635q0u-Vn-2" target="IFpgJbpynFuCeoux7K9I-6">
          <mxGeometry relative="1" as="geometry" />
        </mxCell>
      </root>
    </mxGraphModel>
  </diagram>
</mxfile>
